<?xml version="1.0" standalone="no"?>
<svg xmlns:xlink="http://www.w3.org/1999/xlink" id="wave" style="transform:rotate(0deg); transition: 0.3s" viewBox="0 0 1440 220" version="1.1" xmlns="http://www.w3.org/2000/svg"><defs><linearGradient id="sw-gradient-0" x1="0" x2="0" y1="1" y2="0"><stop stop-color="rgba(33, 37, 41, 1)" offset="0%"/><stop stop-color="rgba(33, 37, 41, 1)" offset="100%"/></linearGradient></defs><path style="transform:translate(0, 0px); opacity:1" fill="url(#sw-gradient-0)" d="M0,66L40,80.7C80,95,160,125,240,139.3C320,154,400,154,480,135.7C560,117,640,81,720,84.3C800,88,880,132,960,135.7C1040,139,1120,103,1200,106.3C1280,110,1360,154,1440,176C1520,198,1600,198,1680,172.3C1760,147,1840,95,1920,91.7C2000,88,2080,132,2160,132C2240,132,2320,88,2400,62.3C2480,37,2560,29,2640,47.7C2720,66,2800,110,2880,113.7C2960,117,3040,81,3120,62.3C3200,44,3280,44,3360,58.7C3440,73,3520,103,3600,117.3C3680,132,3760,132,3840,110C3920,88,4000,44,4080,40.3C4160,37,4240,73,4320,95.3C4400,117,4480,125,4560,106.3C4640,88,4720,44,4800,40.3C4880,37,4960,73,5040,73.3C5120,73,5200,37,5280,44C5360,51,5440,103,5520,135.7C5600,169,5680,183,5720,190.7L5760,198L5760,220L5720,220C5680,220,5600,220,5520,220C5440,220,5360,220,5280,220C5200,220,5120,220,5040,220C4960,220,4880,220,4800,220C4720,220,4640,220,4560,220C4480,220,4400,220,4320,220C4240,220,4160,220,4080,220C4000,220,3920,220,3840,220C3760,220,3680,220,3600,220C3520,220,3440,220,3360,220C3280,220,3200,220,3120,220C3040,220,2960,220,2880,220C2800,220,2720,220,2640,220C2560,220,2480,220,2400,220C2320,220,2240,220,2160,220C2080,220,2000,220,1920,220C1840,220,1760,220,1680,220C1600,220,1520,220,1440,220C1360,220,1280,220,1200,220C1120,220,1040,220,960,220C880,220,800,220,720,220C640,220,560,220,480,220C400,220,320,220,240,220C160,220,80,220,40,220L0,220Z"/></svg>